<mxfile host="app.diagrams.net" modified="2023-09-29T20:28:11.917Z" agent="Mozilla/5.0 (Windows NT 10.0; Win64; x64) AppleWebKit/537.36 (KHTML, like Gecko) Chrome/117.0.0.0 Safari/537.36" etag="WItalYGLKqQoqL-gNNwF" version="21.8.0" type="device">
  <diagram name="Página-1" id="nxO_NT3sz3kJma2ZGj9F">
    <mxGraphModel dx="1150" dy="477" grid="1" gridSize="10" guides="1" tooltips="1" connect="1" arrows="1" fold="1" page="1" pageScale="1" pageWidth="827" pageHeight="1169" math="0" shadow="0">
      <root>
        <mxCell id="0" />
        <mxCell id="1" parent="0" />
        <mxCell id="Tb0O2YsOD1yUC9hUtgDR-1" value="" style="ellipse;html=1;shape=startState;fillColor=#000000;strokeColor=#ff0000;" vertex="1" parent="1">
          <mxGeometry x="402" y="10" width="30" height="30" as="geometry" />
        </mxCell>
        <mxCell id="Tb0O2YsOD1yUC9hUtgDR-2" value="" style="edgeStyle=orthogonalEdgeStyle;html=1;verticalAlign=bottom;endArrow=open;endSize=8;strokeColor=#ff0000;rounded=0;" edge="1" parent="1" source="Tb0O2YsOD1yUC9hUtgDR-1">
          <mxGeometry relative="1" as="geometry">
            <mxPoint x="417" y="100" as="targetPoint" />
          </mxGeometry>
        </mxCell>
        <mxCell id="Tb0O2YsOD1yUC9hUtgDR-4" style="edgeStyle=orthogonalEdgeStyle;rounded=0;orthogonalLoop=1;jettySize=auto;html=1;" edge="1" parent="1" target="Tb0O2YsOD1yUC9hUtgDR-12">
          <mxGeometry relative="1" as="geometry">
            <mxPoint x="458.65999999999997" y="305" as="sourcePoint" />
          </mxGeometry>
        </mxCell>
        <mxCell id="Tb0O2YsOD1yUC9hUtgDR-5" style="edgeStyle=orthogonalEdgeStyle;rounded=0;orthogonalLoop=1;jettySize=auto;html=1;" edge="1" parent="1">
          <mxGeometry relative="1" as="geometry">
            <mxPoint x="417" y="280" as="targetPoint" />
            <mxPoint x="417" y="220" as="sourcePoint" />
          </mxGeometry>
        </mxCell>
        <mxCell id="Tb0O2YsOD1yUC9hUtgDR-6" value="Emissão do boletim de ocorrência" style="html=1;whiteSpace=wrap;" vertex="1" parent="1">
          <mxGeometry x="332" y="100" width="170" height="30" as="geometry" />
        </mxCell>
        <mxCell id="Tb0O2YsOD1yUC9hUtgDR-7" value="veículo em boas condições" style="text;align=center;fontStyle=1;verticalAlign=middle;spacingLeft=3;spacingRight=3;strokeColor=none;rotatable=0;points=[[0,0.5],[1,0.5]];portConstraint=eastwest;html=1;" vertex="1" parent="1">
          <mxGeometry x="181.82999999999998" y="270" width="183.66" height="26" as="geometry" />
        </mxCell>
        <mxCell id="Tb0O2YsOD1yUC9hUtgDR-8" value="Veículo em más condições" style="text;align=center;fontStyle=1;verticalAlign=middle;spacingLeft=3;spacingRight=3;strokeColor=none;rotatable=0;points=[[0,0.5],[1,0.5]];portConstraint=eastwest;html=1;" vertex="1" parent="1">
          <mxGeometry x="542" y="270" width="174.67" height="26" as="geometry" />
        </mxCell>
        <mxCell id="Tb0O2YsOD1yUC9hUtgDR-9" value="o segurado dirige até a oficina" style="html=1;whiteSpace=wrap;" vertex="1" parent="1">
          <mxGeometry x="191.99" y="460" width="140" height="30" as="geometry" />
        </mxCell>
        <mxCell id="Tb0O2YsOD1yUC9hUtgDR-51" style="edgeStyle=orthogonalEdgeStyle;rounded=0;orthogonalLoop=1;jettySize=auto;html=1;" edge="1" parent="1" source="Tb0O2YsOD1yUC9hUtgDR-12">
          <mxGeometry relative="1" as="geometry">
            <mxPoint x="635.3299999999999" y="460" as="targetPoint" />
          </mxGeometry>
        </mxCell>
        <mxCell id="Tb0O2YsOD1yUC9hUtgDR-12" value="Seguradora aciona o reboque" style="html=1;whiteSpace=wrap;" vertex="1" parent="1">
          <mxGeometry x="565.3299999999999" y="380" width="140" height="30" as="geometry" />
        </mxCell>
        <mxCell id="Tb0O2YsOD1yUC9hUtgDR-42" style="edgeStyle=orthogonalEdgeStyle;rounded=0;orthogonalLoop=1;jettySize=auto;html=1;entryX=0.5;entryY=0;entryDx=0;entryDy=0;" edge="1" parent="1" source="Tb0O2YsOD1yUC9hUtgDR-30" target="Tb0O2YsOD1yUC9hUtgDR-9">
          <mxGeometry relative="1" as="geometry">
            <mxPoint x="260" y="380" as="targetPoint" />
          </mxGeometry>
        </mxCell>
        <mxCell id="Tb0O2YsOD1yUC9hUtgDR-30" value="" style="html=1;whiteSpace=wrap;aspect=fixed;shape=isoRectangle;" vertex="1" parent="1">
          <mxGeometry x="375.33" y="280" width="83.33" height="50" as="geometry" />
        </mxCell>
        <mxCell id="Tb0O2YsOD1yUC9hUtgDR-40" value="" style="edgeStyle=orthogonalEdgeStyle;html=1;verticalAlign=bottom;endArrow=open;endSize=8;strokeColor=#ff0000;rounded=0;" edge="1" parent="1">
          <mxGeometry relative="1" as="geometry">
            <mxPoint x="416.99" y="190" as="targetPoint" />
            <mxPoint x="416.99" y="130" as="sourcePoint" />
          </mxGeometry>
        </mxCell>
        <mxCell id="Tb0O2YsOD1yUC9hUtgDR-41" value="Notificação da seguradora" style="html=1;whiteSpace=wrap;" vertex="1" parent="1">
          <mxGeometry x="331.99" y="190" width="170" height="30" as="geometry" />
        </mxCell>
        <mxCell id="Tb0O2YsOD1yUC9hUtgDR-44" value="A oficina avalia os danos" style="html=1;whiteSpace=wrap;" vertex="1" parent="1">
          <mxGeometry x="343.9999999999999" y="655" width="140" height="30" as="geometry" />
        </mxCell>
        <mxCell id="Tb0O2YsOD1yUC9hUtgDR-50" style="edgeStyle=orthogonalEdgeStyle;rounded=0;orthogonalLoop=1;jettySize=auto;html=1;" edge="1" parent="1" source="Tb0O2YsOD1yUC9hUtgDR-45">
          <mxGeometry relative="1" as="geometry">
            <mxPoint x="413.99500000000006" y="655" as="targetPoint" />
          </mxGeometry>
        </mxCell>
        <mxCell id="Tb0O2YsOD1yUC9hUtgDR-45" value="" style="html=1;whiteSpace=wrap;aspect=fixed;shape=isoRectangle;" vertex="1" parent="1">
          <mxGeometry x="372.33" y="550" width="83.33" height="50" as="geometry" />
        </mxCell>
        <mxCell id="Tb0O2YsOD1yUC9hUtgDR-53" value="o reboque leva o veículo até a oficina" style="html=1;whiteSpace=wrap;" vertex="1" parent="1">
          <mxGeometry x="565.3299999999999" y="460" width="140" height="30" as="geometry" />
        </mxCell>
        <mxCell id="Tb0O2YsOD1yUC9hUtgDR-56" style="edgeStyle=orthogonalEdgeStyle;rounded=0;orthogonalLoop=1;jettySize=auto;html=1;entryX=0.932;entryY=0.4;entryDx=0;entryDy=0;entryPerimeter=0;" edge="1" parent="1" source="Tb0O2YsOD1yUC9hUtgDR-53" target="Tb0O2YsOD1yUC9hUtgDR-45">
          <mxGeometry relative="1" as="geometry" />
        </mxCell>
        <mxCell id="Tb0O2YsOD1yUC9hUtgDR-58" style="edgeStyle=orthogonalEdgeStyle;rounded=0;orthogonalLoop=1;jettySize=auto;html=1;entryX=0.116;entryY=0.411;entryDx=0;entryDy=0;entryPerimeter=0;" edge="1" parent="1" source="Tb0O2YsOD1yUC9hUtgDR-9" target="Tb0O2YsOD1yUC9hUtgDR-45">
          <mxGeometry relative="1" as="geometry" />
        </mxCell>
        <mxCell id="Tb0O2YsOD1yUC9hUtgDR-59" style="edgeStyle=orthogonalEdgeStyle;rounded=0;orthogonalLoop=1;jettySize=auto;html=1;" edge="1" parent="1">
          <mxGeometry relative="1" as="geometry">
            <mxPoint x="416.9999999999999" y="745" as="targetPoint" />
            <mxPoint x="416.9999999999999" y="685" as="sourcePoint" />
          </mxGeometry>
        </mxCell>
        <mxCell id="Tb0O2YsOD1yUC9hUtgDR-60" value="perda total" style="text;align=center;fontStyle=1;verticalAlign=middle;spacingLeft=3;spacingRight=3;strokeColor=none;rotatable=0;points=[[0,0.5],[1,0.5]];portConstraint=eastwest;html=1;" vertex="1" parent="1">
          <mxGeometry x="181.82999999999996" y="735" width="183.66" height="26" as="geometry" />
        </mxCell>
        <mxCell id="Tb0O2YsOD1yUC9hUtgDR-61" value="não perda total" style="text;align=center;fontStyle=1;verticalAlign=middle;spacingLeft=3;spacingRight=3;strokeColor=none;rotatable=0;points=[[0,0.5],[1,0.5]];portConstraint=eastwest;html=1;" vertex="1" parent="1">
          <mxGeometry x="509.9999999999999" y="735" width="174.67" height="26" as="geometry" />
        </mxCell>
        <mxCell id="Tb0O2YsOD1yUC9hUtgDR-65" style="edgeStyle=orthogonalEdgeStyle;rounded=0;orthogonalLoop=1;jettySize=auto;html=1;entryX=0.5;entryY=0;entryDx=0;entryDy=0;" edge="1" parent="1" source="Tb0O2YsOD1yUC9hUtgDR-62" target="Tb0O2YsOD1yUC9hUtgDR-63">
          <mxGeometry relative="1" as="geometry" />
        </mxCell>
        <mxCell id="Tb0O2YsOD1yUC9hUtgDR-75" style="edgeStyle=orthogonalEdgeStyle;rounded=0;orthogonalLoop=1;jettySize=auto;html=1;entryX=0.5;entryY=0;entryDx=0;entryDy=0;" edge="1" parent="1" source="Tb0O2YsOD1yUC9hUtgDR-62" target="Tb0O2YsOD1yUC9hUtgDR-64">
          <mxGeometry relative="1" as="geometry" />
        </mxCell>
        <mxCell id="Tb0O2YsOD1yUC9hUtgDR-62" value="" style="html=1;whiteSpace=wrap;aspect=fixed;shape=isoRectangle;" vertex="1" parent="1">
          <mxGeometry x="375.3299999999999" y="745" width="83.33" height="50" as="geometry" />
        </mxCell>
        <mxCell id="Tb0O2YsOD1yUC9hUtgDR-63" value="Seguradora deposita o prêmio" style="html=1;whiteSpace=wrap;" vertex="1" parent="1">
          <mxGeometry x="203.65999999999988" y="890" width="140" height="30" as="geometry" />
        </mxCell>
        <mxCell id="Tb0O2YsOD1yUC9hUtgDR-64" value="Seguradora deposita o prêmio" style="html=1;whiteSpace=wrap;" vertex="1" parent="1">
          <mxGeometry x="476.6599999999999" y="890" width="140" height="30" as="geometry" />
        </mxCell>
        <mxCell id="Tb0O2YsOD1yUC9hUtgDR-67" value="" style="html=1;points=[];perimeter=orthogonalPerimeter;fillColor=strokeColor;rotation=90;" vertex="1" parent="1">
          <mxGeometry x="544.1600000000001" y="930" width="5" height="80" as="geometry" />
        </mxCell>
        <mxCell id="Tb0O2YsOD1yUC9hUtgDR-68" value="a seguradora cobrará a franquia" style="html=1;whiteSpace=wrap;" vertex="1" parent="1">
          <mxGeometry x="456.65999999999997" y="1060" width="170" height="30" as="geometry" />
        </mxCell>
        <mxCell id="Tb0O2YsOD1yUC9hUtgDR-69" value="o segurado pagará a franquia" style="html=1;whiteSpace=wrap;" vertex="1" parent="1">
          <mxGeometry x="640" y="1060" width="170" height="30" as="geometry" />
        </mxCell>
        <mxCell id="Tb0O2YsOD1yUC9hUtgDR-70" value=" oficina conserta o automóvel" style="html=1;whiteSpace=wrap;" vertex="1" parent="1">
          <mxGeometry x="280" y="1060" width="167.5" height="30" as="geometry" />
        </mxCell>
        <mxCell id="Tb0O2YsOD1yUC9hUtgDR-71" value="" style="endArrow=classic;html=1;rounded=0;entryX=0.5;entryY=0;entryDx=0;entryDy=0;" edge="1" parent="1">
          <mxGeometry width="50" height="50" relative="1" as="geometry">
            <mxPoint x="544.1600000000001" y="970" as="sourcePoint" />
            <mxPoint x="360.40999999999997" y="1060" as="targetPoint" />
          </mxGeometry>
        </mxCell>
        <mxCell id="Tb0O2YsOD1yUC9hUtgDR-72" value="" style="endArrow=classic;html=1;rounded=0;entryX=0.5;entryY=0;entryDx=0;entryDy=0;" edge="1" parent="1">
          <mxGeometry width="50" height="50" relative="1" as="geometry">
            <mxPoint x="549.1600000000001" y="970" as="sourcePoint" />
            <mxPoint x="726.6600000000001" y="1060" as="targetPoint" />
          </mxGeometry>
        </mxCell>
        <mxCell id="Tb0O2YsOD1yUC9hUtgDR-73" value="" style="endArrow=classic;html=1;rounded=0;" edge="1" parent="1">
          <mxGeometry width="50" height="50" relative="1" as="geometry">
            <mxPoint x="546.1600000000001" y="970" as="sourcePoint" />
            <mxPoint x="546.6600000000001" y="1060" as="targetPoint" />
          </mxGeometry>
        </mxCell>
        <mxCell id="Tb0O2YsOD1yUC9hUtgDR-76" style="edgeStyle=orthogonalEdgeStyle;rounded=0;orthogonalLoop=1;jettySize=auto;html=1;entryX=0.136;entryY=0.495;entryDx=0;entryDy=0;entryPerimeter=0;" edge="1" parent="1" source="Tb0O2YsOD1yUC9hUtgDR-64" target="Tb0O2YsOD1yUC9hUtgDR-67">
          <mxGeometry relative="1" as="geometry" />
        </mxCell>
        <mxCell id="Tb0O2YsOD1yUC9hUtgDR-77" value="" style="ellipse;html=1;shape=endState;fillColor=#000000;strokeColor=#ff0000;" vertex="1" parent="1">
          <mxGeometry x="258.65999999999997" y="960" width="30" height="30" as="geometry" />
        </mxCell>
        <mxCell id="Tb0O2YsOD1yUC9hUtgDR-78" style="edgeStyle=orthogonalEdgeStyle;rounded=0;orthogonalLoop=1;jettySize=auto;html=1;" edge="1" parent="1">
          <mxGeometry relative="1" as="geometry">
            <mxPoint x="273.66" y="960" as="targetPoint" />
            <mxPoint x="273.66" y="920" as="sourcePoint" />
          </mxGeometry>
        </mxCell>
        <mxCell id="Tb0O2YsOD1yUC9hUtgDR-79" value="" style="ellipse;html=1;shape=endState;fillColor=#000000;strokeColor=#ff0000;" vertex="1" parent="1">
          <mxGeometry x="531.66" y="1130" width="30" height="30" as="geometry" />
        </mxCell>
        <mxCell id="Tb0O2YsOD1yUC9hUtgDR-80" style="edgeStyle=orthogonalEdgeStyle;rounded=0;orthogonalLoop=1;jettySize=auto;html=1;" edge="1" parent="1">
          <mxGeometry relative="1" as="geometry">
            <mxPoint x="546.6600000000001" y="1130" as="targetPoint" />
            <mxPoint x="546.6600000000001" y="1090" as="sourcePoint" />
          </mxGeometry>
        </mxCell>
        <mxCell id="Tb0O2YsOD1yUC9hUtgDR-81" value="" style="ellipse;html=1;shape=endState;fillColor=#000000;strokeColor=#ff0000;" vertex="1" parent="1">
          <mxGeometry x="716.67" y="1130" width="30" height="30" as="geometry" />
        </mxCell>
        <mxCell id="Tb0O2YsOD1yUC9hUtgDR-82" style="edgeStyle=orthogonalEdgeStyle;rounded=0;orthogonalLoop=1;jettySize=auto;html=1;" edge="1" parent="1">
          <mxGeometry relative="1" as="geometry">
            <mxPoint x="731.6700000000001" y="1130" as="targetPoint" />
            <mxPoint x="731.6700000000001" y="1090" as="sourcePoint" />
          </mxGeometry>
        </mxCell>
        <mxCell id="Tb0O2YsOD1yUC9hUtgDR-83" value="" style="ellipse;html=1;shape=endState;fillColor=#000000;strokeColor=#ff0000;" vertex="1" parent="1">
          <mxGeometry x="335.48999999999995" y="1130" width="30" height="30" as="geometry" />
        </mxCell>
        <mxCell id="Tb0O2YsOD1yUC9hUtgDR-84" style="edgeStyle=orthogonalEdgeStyle;rounded=0;orthogonalLoop=1;jettySize=auto;html=1;" edge="1" parent="1">
          <mxGeometry relative="1" as="geometry">
            <mxPoint x="350.49" y="1130" as="targetPoint" />
            <mxPoint x="350.49" y="1090" as="sourcePoint" />
          </mxGeometry>
        </mxCell>
      </root>
    </mxGraphModel>
  </diagram>
</mxfile>
